<mxfile host="app.diagrams.net" modified="2020-11-14T18:13:05.358Z" agent="5.0 (Windows NT 10.0; WOW64) AppleWebKit/537.36 (KHTML, like Gecko) Chrome/86.0.4240.198 Safari/537.36" etag="U6xo0dKwq4uoOh7KolyG" version="13.9.8" type="github">
  <diagram id="Xy6ysxLiAf85u6eN7p3X" name="Page-1">
    <mxGraphModel dx="1019" dy="519" grid="1" gridSize="10" guides="1" tooltips="1" connect="1" arrows="1" fold="1" page="1" pageScale="1" pageWidth="827" pageHeight="1169" math="0" shadow="0">
      <root>
        <mxCell id="0" />
        <mxCell id="1" parent="0" />
        <mxCell id="fN4Kaj9CFgbJgUVEXXit-1" value="" style="rounded=0;whiteSpace=wrap;html=1;" parent="1" vertex="1">
          <mxGeometry x="163.75" y="50" width="650" height="810" as="geometry" />
        </mxCell>
        <mxCell id="fN4Kaj9CFgbJgUVEXXit-2" value="Actor" style="shape=umlActor;verticalLabelPosition=bottom;verticalAlign=top;html=1;outlineConnect=0;" parent="1" vertex="1">
          <mxGeometry x="60" y="110" width="55" height="110" as="geometry" />
        </mxCell>
        <mxCell id="fN4Kaj9CFgbJgUVEXXit-3" value="Actor" style="shape=umlActor;verticalLabelPosition=bottom;verticalAlign=top;html=1;outlineConnect=0;" parent="1" vertex="1">
          <mxGeometry x="60" y="620" width="60" height="120" as="geometry" />
        </mxCell>
        <mxCell id="fN4Kaj9CFgbJgUVEXXit-4" value="user want to book" style="text;html=1;align=center;verticalAlign=middle;resizable=0;points=[];autosize=1;" parent="1" vertex="1">
          <mxGeometry x="35" y="760" width="110" height="20" as="geometry" />
        </mxCell>
        <mxCell id="fN4Kaj9CFgbJgUVEXXit-5" value="User without booking" style="text;html=1;align=center;verticalAlign=middle;resizable=0;points=[];autosize=1;" parent="1" vertex="1">
          <mxGeometry x="30" y="250" width="130" height="20" as="geometry" />
        </mxCell>
        <mxCell id="fN4Kaj9CFgbJgUVEXXit-9" value="" style="endArrow=none;html=1;entryX=0;entryY=0;entryDx=0;entryDy=0;" parent="1" edge="1" target="fN4Kaj9CFgbJgUVEXXit-20">
          <mxGeometry width="50" height="50" relative="1" as="geometry">
            <mxPoint x="110" y="190" as="sourcePoint" />
            <mxPoint x="290" y="260" as="targetPoint" />
            <Array as="points" />
          </mxGeometry>
        </mxCell>
        <mxCell id="fN4Kaj9CFgbJgUVEXXit-10" value="" style="ellipse;whiteSpace=wrap;html=1;aspect=fixed;" parent="1" vertex="1">
          <mxGeometry x="300" y="250" width="80" height="80" as="geometry" />
        </mxCell>
        <mxCell id="fN4Kaj9CFgbJgUVEXXit-11" value="" style="endArrow=none;html=1;" parent="1" target="fN4Kaj9CFgbJgUVEXXit-12" edge="1">
          <mxGeometry width="50" height="50" relative="1" as="geometry">
            <mxPoint x="110" y="630" as="sourcePoint" />
            <mxPoint x="320" y="380" as="targetPoint" />
            <Array as="points" />
          </mxGeometry>
        </mxCell>
        <mxCell id="fN4Kaj9CFgbJgUVEXXit-12" value="" style="ellipse;whiteSpace=wrap;html=1;aspect=fixed;" parent="1" vertex="1">
          <mxGeometry x="300" y="410" width="80" height="80" as="geometry" />
        </mxCell>
        <mxCell id="fN4Kaj9CFgbJgUVEXXit-17" value="" style="endArrow=none;html=1;exitX=0.5;exitY=0;exitDx=0;exitDy=0;exitPerimeter=0;" parent="1" source="fN4Kaj9CFgbJgUVEXXit-3" edge="1">
          <mxGeometry width="50" height="50" relative="1" as="geometry">
            <mxPoint x="94.5" y="330" as="sourcePoint" />
            <mxPoint x="94.5" y="270" as="targetPoint" />
          </mxGeometry>
        </mxCell>
        <mxCell id="fN4Kaj9CFgbJgUVEXXit-18" value="" style="endArrow=none;html=1;entryX=0.087;entryY=0.797;entryDx=0;entryDy=0;entryPerimeter=0;exitX=0.75;exitY=0.1;exitDx=0;exitDy=0;exitPerimeter=0;" parent="1" target="fN4Kaj9CFgbJgUVEXXit-1" edge="1" source="fN4Kaj9CFgbJgUVEXXit-3">
          <mxGeometry width="50" height="50" relative="1" as="geometry">
            <mxPoint x="110" y="190" as="sourcePoint" />
            <mxPoint x="265.7966692986572" y="438.15351223507537" as="targetPoint" />
            <Array as="points" />
          </mxGeometry>
        </mxCell>
        <mxCell id="fN4Kaj9CFgbJgUVEXXit-19" value="" style="ellipse;whiteSpace=wrap;html=1;aspect=fixed;" parent="1" vertex="1">
          <mxGeometry x="190" y="670" width="80" height="80" as="geometry" />
        </mxCell>
        <mxCell id="fN4Kaj9CFgbJgUVEXXit-20" value="U1:Search rooms" style="text;html=1;strokeColor=none;fillColor=none;align=center;verticalAlign=middle;whiteSpace=wrap;rounded=0;" parent="1" vertex="1">
          <mxGeometry x="300" y="270" width="80" height="20" as="geometry" />
        </mxCell>
        <mxCell id="fN4Kaj9CFgbJgUVEXXit-21" value="U6:pay methods" style="text;html=1;strokeColor=none;fillColor=none;align=center;verticalAlign=middle;whiteSpace=wrap;rounded=0;" parent="1" vertex="1">
          <mxGeometry x="300" y="440" width="80" height="20" as="geometry" />
        </mxCell>
        <mxCell id="fN4Kaj9CFgbJgUVEXXit-25" value="U10:Cancel room" style="text;html=1;strokeColor=none;fillColor=none;align=center;verticalAlign=middle;whiteSpace=wrap;rounded=0;" parent="1" vertex="1">
          <mxGeometry x="190" y="700" width="80" height="20" as="geometry" />
        </mxCell>
        <mxCell id="fN4Kaj9CFgbJgUVEXXit-26" value="" style="ellipse;whiteSpace=wrap;html=1;aspect=fixed;" parent="1" vertex="1">
          <mxGeometry x="442.5" y="330" width="80" height="80" as="geometry" />
        </mxCell>
        <mxCell id="fN4Kaj9CFgbJgUVEXXit-27" value="" style="endArrow=none;dashed=1;html=1;dashPattern=1 3;strokeWidth=2;" parent="1" edge="1">
          <mxGeometry width="50" height="50" relative="1" as="geometry">
            <mxPoint x="391.5" y="284" as="sourcePoint" />
            <mxPoint x="442.5" y="230" as="targetPoint" />
          </mxGeometry>
        </mxCell>
        <mxCell id="fN4Kaj9CFgbJgUVEXXit-28" value="" style="ellipse;whiteSpace=wrap;html=1;aspect=fixed;" parent="1" vertex="1">
          <mxGeometry x="440" y="150" width="80" height="80" as="geometry" />
        </mxCell>
        <mxCell id="fN4Kaj9CFgbJgUVEXXit-29" value="U2:Filter types" style="text;html=1;strokeColor=none;fillColor=none;align=center;verticalAlign=middle;whiteSpace=wrap;rounded=0;" parent="1" vertex="1">
          <mxGeometry x="443.75" y="170" width="72.5" height="40" as="geometry" />
        </mxCell>
        <mxCell id="fN4Kaj9CFgbJgUVEXXit-30" value="U4:pick a room&amp;nbsp;" style="text;html=1;strokeColor=none;fillColor=none;align=center;verticalAlign=middle;whiteSpace=wrap;rounded=0;" parent="1" vertex="1">
          <mxGeometry x="450" y="360" width="67.5" height="20" as="geometry" />
        </mxCell>
        <mxCell id="fN4Kaj9CFgbJgUVEXXit-32" value="" style="endArrow=none;dashed=1;html=1;dashPattern=1 3;strokeWidth=2;entryX=1;entryY=0.775;entryDx=0;entryDy=0;entryPerimeter=0;" parent="1" target="fN4Kaj9CFgbJgUVEXXit-10" edge="1">
          <mxGeometry width="50" height="50" relative="1" as="geometry">
            <mxPoint x="430" y="350" as="sourcePoint" />
            <mxPoint x="459.95836506260184" y="226.410228516394" as="targetPoint" />
            <Array as="points">
              <mxPoint x="420" y="340" />
            </Array>
          </mxGeometry>
        </mxCell>
        <mxCell id="fN4Kaj9CFgbJgUVEXXit-33" value="" style="ellipse;whiteSpace=wrap;html=1;aspect=fixed;" parent="1" vertex="1">
          <mxGeometry x="610" y="160" width="90" height="90" as="geometry" />
        </mxCell>
        <mxCell id="fN4Kaj9CFgbJgUVEXXit-34" value="U3:check availably of rooms" style="text;html=1;strokeColor=none;fillColor=none;align=center;verticalAlign=middle;whiteSpace=wrap;rounded=0;" parent="1" vertex="1">
          <mxGeometry x="605" y="200" width="100" height="10" as="geometry" />
        </mxCell>
        <mxCell id="fN4Kaj9CFgbJgUVEXXit-35" value="" style="endArrow=none;dashed=1;html=1;dashPattern=1 3;strokeWidth=2;exitX=0;exitY=0.5;exitDx=0;exitDy=0;entryX=0.921;entryY=1.25;entryDx=0;entryDy=0;entryPerimeter=0;" parent="1" source="fN4Kaj9CFgbJgUVEXXit-34" target="fN4Kaj9CFgbJgUVEXXit-29" edge="1">
          <mxGeometry width="50" height="50" relative="1" as="geometry">
            <mxPoint x="580" y="230" as="sourcePoint" />
            <mxPoint x="520" y="177" as="targetPoint" />
            <Array as="points" />
          </mxGeometry>
        </mxCell>
        <mxCell id="fN4Kaj9CFgbJgUVEXXit-39" value="" style="endArrow=classic;html=1;exitX=0.516;exitY=0.212;exitDx=0;exitDy=0;exitPerimeter=0;entryX=0.5;entryY=0;entryDx=0;entryDy=0;" parent="1" source="fN4Kaj9CFgbJgUVEXXit-1" target="fN4Kaj9CFgbJgUVEXXit-26" edge="1">
          <mxGeometry width="50" height="50" relative="1" as="geometry">
            <mxPoint x="390" y="400" as="sourcePoint" />
            <mxPoint x="440" y="350" as="targetPoint" />
          </mxGeometry>
        </mxCell>
        <mxCell id="fN4Kaj9CFgbJgUVEXXit-40" value="" style="ellipse;whiteSpace=wrap;html=1;aspect=fixed;" parent="1" vertex="1">
          <mxGeometry x="442.5" y="420" width="80" height="80" as="geometry" />
        </mxCell>
        <mxCell id="fN4Kaj9CFgbJgUVEXXit-41" value="U7: by Cash" style="text;html=1;strokeColor=none;fillColor=none;align=center;verticalAlign=middle;whiteSpace=wrap;rounded=0;" parent="1" vertex="1">
          <mxGeometry x="447.5" y="440" width="80" height="20" as="geometry" />
        </mxCell>
        <mxCell id="fN4Kaj9CFgbJgUVEXXit-42" value="" style="ellipse;whiteSpace=wrap;html=1;aspect=fixed;" parent="1" vertex="1">
          <mxGeometry x="447.5" y="510" width="80" height="80" as="geometry" />
        </mxCell>
        <mxCell id="fN4Kaj9CFgbJgUVEXXit-45" value="U9:Credit card" style="text;html=1;strokeColor=none;fillColor=none;align=center;verticalAlign=middle;whiteSpace=wrap;rounded=0;" parent="1" vertex="1">
          <mxGeometry x="450" y="540" width="77.5" height="20" as="geometry" />
        </mxCell>
        <mxCell id="fN4Kaj9CFgbJgUVEXXit-46" value="" style="endArrow=classic;html=1;exitX=0;exitY=0.5;exitDx=0;exitDy=0;entryX=1;entryY=0.25;entryDx=0;entryDy=0;" parent="1" source="fN4Kaj9CFgbJgUVEXXit-41" target="fN4Kaj9CFgbJgUVEXXit-21" edge="1">
          <mxGeometry width="50" height="50" relative="1" as="geometry">
            <mxPoint x="390" y="450" as="sourcePoint" />
            <mxPoint x="440" y="400" as="targetPoint" />
          </mxGeometry>
        </mxCell>
        <mxCell id="fN4Kaj9CFgbJgUVEXXit-49" value="" style="endArrow=classic;html=1;exitX=0.106;exitY=0;exitDx=0;exitDy=0;exitPerimeter=0;" parent="1" source="fN4Kaj9CFgbJgUVEXXit-45" target="fN4Kaj9CFgbJgUVEXXit-12" edge="1">
          <mxGeometry width="50" height="50" relative="1" as="geometry">
            <mxPoint x="457.5" y="460" as="sourcePoint" />
            <mxPoint x="390" y="455" as="targetPoint" />
          </mxGeometry>
        </mxCell>
        <mxCell id="fN4Kaj9CFgbJgUVEXXit-51" value="" style="ellipse;whiteSpace=wrap;html=1;aspect=fixed;" parent="1" vertex="1">
          <mxGeometry x="320" y="600" width="80" height="80" as="geometry" />
        </mxCell>
        <mxCell id="fN4Kaj9CFgbJgUVEXXit-52" value="" style="ellipse;whiteSpace=wrap;html=1;aspect=fixed;" parent="1" vertex="1">
          <mxGeometry x="320" y="740" width="80" height="80" as="geometry" />
        </mxCell>
        <mxCell id="fN4Kaj9CFgbJgUVEXXit-53" value="" style="ellipse;whiteSpace=wrap;html=1;aspect=fixed;" parent="1" vertex="1">
          <mxGeometry x="447.5" y="600" width="80" height="80" as="geometry" />
        </mxCell>
        <mxCell id="fN4Kaj9CFgbJgUVEXXit-54" value="" style="ellipse;whiteSpace=wrap;html=1;aspect=fixed;" parent="1" vertex="1">
          <mxGeometry x="447.5" y="740" width="80" height="80" as="geometry" />
        </mxCell>
        <mxCell id="fN4Kaj9CFgbJgUVEXXit-55" value="U11:Before 24 hours" style="text;html=1;strokeColor=none;fillColor=none;align=center;verticalAlign=middle;whiteSpace=wrap;rounded=0;" parent="1" vertex="1">
          <mxGeometry x="325" y="630" width="70" height="20" as="geometry" />
        </mxCell>
        <mxCell id="fN4Kaj9CFgbJgUVEXXit-56" value="U12:after&amp;nbsp; 24 hours" style="text;html=1;strokeColor=none;fillColor=none;align=center;verticalAlign=middle;whiteSpace=wrap;rounded=0;" parent="1" vertex="1">
          <mxGeometry x="325" y="770" width="70" height="20" as="geometry" />
        </mxCell>
        <mxCell id="fN4Kaj9CFgbJgUVEXXit-57" value="U11:refund" style="text;html=1;strokeColor=none;fillColor=none;align=center;verticalAlign=middle;whiteSpace=wrap;rounded=0;" parent="1" vertex="1">
          <mxGeometry x="447.5" y="630" width="70" height="20" as="geometry" />
        </mxCell>
        <mxCell id="fN4Kaj9CFgbJgUVEXXit-58" value="U14:No refund" style="text;html=1;strokeColor=none;fillColor=none;align=center;verticalAlign=middle;whiteSpace=wrap;rounded=0;" parent="1" vertex="1">
          <mxGeometry x="450" y="770" width="70" height="20" as="geometry" />
        </mxCell>
        <mxCell id="fN4Kaj9CFgbJgUVEXXit-59" style="edgeStyle=orthogonalEdgeStyle;rounded=0;orthogonalLoop=1;jettySize=auto;html=1;exitX=0.5;exitY=1;exitDx=0;exitDy=0;" parent="1" source="fN4Kaj9CFgbJgUVEXXit-57" target="fN4Kaj9CFgbJgUVEXXit-57" edge="1">
          <mxGeometry relative="1" as="geometry" />
        </mxCell>
        <mxCell id="fN4Kaj9CFgbJgUVEXXit-60" value="" style="endArrow=none;dashed=1;html=1;dashPattern=1 3;strokeWidth=2;" parent="1" edge="1">
          <mxGeometry width="50" height="50" relative="1" as="geometry">
            <mxPoint x="245" y="750" as="sourcePoint" />
            <mxPoint x="300" y="770" as="targetPoint" />
            <Array as="points">
              <mxPoint x="245" y="750" />
            </Array>
          </mxGeometry>
        </mxCell>
        <mxCell id="fN4Kaj9CFgbJgUVEXXit-62" value="" style="endArrow=none;dashed=1;html=1;dashPattern=1 3;strokeWidth=2;" parent="1" target="fN4Kaj9CFgbJgUVEXXit-51" edge="1">
          <mxGeometry width="50" height="50" relative="1" as="geometry">
            <mxPoint x="270" y="710" as="sourcePoint" />
            <mxPoint x="350" y="740" as="targetPoint" />
            <Array as="points">
              <mxPoint x="270" y="710" />
            </Array>
          </mxGeometry>
        </mxCell>
        <mxCell id="fN4Kaj9CFgbJgUVEXXit-63" value="" style="endArrow=none;dashed=1;html=1;dashPattern=1 3;strokeWidth=2;" parent="1" edge="1">
          <mxGeometry width="50" height="50" relative="1" as="geometry">
            <mxPoint x="400" y="639.5" as="sourcePoint" />
            <mxPoint x="449.9959113049509" y="639.4976245405937" as="targetPoint" />
            <Array as="points">
              <mxPoint x="400" y="639.5" />
            </Array>
          </mxGeometry>
        </mxCell>
        <mxCell id="fN4Kaj9CFgbJgUVEXXit-64" value="" style="endArrow=none;dashed=1;html=1;dashPattern=1 3;strokeWidth=2;" parent="1" edge="1">
          <mxGeometry width="50" height="50" relative="1" as="geometry">
            <mxPoint x="400" y="789" as="sourcePoint" />
            <mxPoint x="449.9959113049508" y="788.9976245405937" as="targetPoint" />
            <Array as="points">
              <mxPoint x="400" y="789" />
            </Array>
          </mxGeometry>
        </mxCell>
        <mxCell id="fN4Kaj9CFgbJgUVEXXit-67" value="" style="ellipse;whiteSpace=wrap;html=1;aspect=fixed;" parent="1" vertex="1">
          <mxGeometry x="705" y="290" width="90" height="90" as="geometry" />
        </mxCell>
        <mxCell id="fN4Kaj9CFgbJgUVEXXit-68" value="" style="endArrow=none;dashed=1;html=1;dashPattern=1 3;strokeWidth=2;exitX=0;exitY=0.75;exitDx=0;exitDy=0;entryX=1;entryY=0.775;entryDx=0;entryDy=0;entryPerimeter=0;" parent="1" edge="1">
          <mxGeometry width="50" height="50" relative="1" as="geometry">
            <mxPoint x="740" y="293" as="sourcePoint" />
            <mxPoint x="670" y="240" as="targetPoint" />
            <Array as="points" />
          </mxGeometry>
        </mxCell>
        <mxCell id="fN4Kaj9CFgbJgUVEXXit-69" value="U5:Book rooms" style="text;html=1;strokeColor=none;fillColor=none;align=center;verticalAlign=middle;whiteSpace=wrap;rounded=0;" parent="1" vertex="1">
          <mxGeometry x="700" y="330" width="100" height="10" as="geometry" />
        </mxCell>
        <mxCell id="fN4Kaj9CFgbJgUVEXXit-70" value="" style="endArrow=classic;html=1;exitX=1;exitY=0.5;exitDx=0;exitDy=0;entryX=0;entryY=0.75;entryDx=0;entryDy=0;" parent="1" source="fN4Kaj9CFgbJgUVEXXit-30" target="fN4Kaj9CFgbJgUVEXXit-69" edge="1">
          <mxGeometry width="50" height="50" relative="1" as="geometry">
            <mxPoint x="577.9000000000001" y="279" as="sourcePoint" />
            <mxPoint x="570" y="350" as="targetPoint" />
          </mxGeometry>
        </mxCell>
        <mxCell id="YTH77d81D2Q7eeMjvWzj-1" value="include" style="text;html=1;strokeColor=none;fillColor=none;align=center;verticalAlign=middle;whiteSpace=wrap;rounded=0;rotation=-45;" vertex="1" parent="1">
          <mxGeometry x="380" y="230" width="40" height="20" as="geometry" />
        </mxCell>
        <mxCell id="YTH77d81D2Q7eeMjvWzj-2" value="include" style="text;html=1;strokeColor=none;fillColor=none;align=center;verticalAlign=middle;whiteSpace=wrap;rounded=0;rotation=45;" vertex="1" parent="1">
          <mxGeometry x="380" y="330" width="40" height="40" as="geometry" />
        </mxCell>
        <mxCell id="YTH77d81D2Q7eeMjvWzj-4" value="" style="endArrow=classic;html=1;" edge="1" parent="1">
          <mxGeometry width="50" height="50" relative="1" as="geometry">
            <mxPoint x="437.5" y="230" as="sourcePoint" />
            <mxPoint x="447.5" y="220" as="targetPoint" />
          </mxGeometry>
        </mxCell>
        <mxCell id="YTH77d81D2Q7eeMjvWzj-5" value="" style="endArrow=classic;html=1;" edge="1" parent="1">
          <mxGeometry width="50" height="50" relative="1" as="geometry">
            <mxPoint x="430" y="350" as="sourcePoint" />
            <mxPoint x="440" y="360" as="targetPoint" />
            <Array as="points">
              <mxPoint x="430" y="350" />
            </Array>
          </mxGeometry>
        </mxCell>
        <mxCell id="YTH77d81D2Q7eeMjvWzj-6" value="" style="endArrow=classic;html=1;" edge="1" parent="1">
          <mxGeometry width="50" height="50" relative="1" as="geometry">
            <mxPoint x="310" y="670" as="sourcePoint" />
            <mxPoint x="325" y="660" as="targetPoint" />
            <Array as="points">
              <mxPoint x="315" y="670" />
            </Array>
          </mxGeometry>
        </mxCell>
        <mxCell id="YTH77d81D2Q7eeMjvWzj-7" value="" style="endArrow=classic;html=1;" edge="1" parent="1">
          <mxGeometry width="50" height="50" relative="1" as="geometry">
            <mxPoint x="433" y="639.5" as="sourcePoint" />
            <mxPoint x="447.5" y="639.5" as="targetPoint" />
            <Array as="points">
              <mxPoint x="438" y="639.5" />
            </Array>
          </mxGeometry>
        </mxCell>
        <mxCell id="YTH77d81D2Q7eeMjvWzj-8" value="" style="endArrow=classic;html=1;" edge="1" parent="1">
          <mxGeometry width="50" height="50" relative="1" as="geometry">
            <mxPoint x="433" y="789" as="sourcePoint" />
            <mxPoint x="447.5" y="789" as="targetPoint" />
            <Array as="points">
              <mxPoint x="438" y="789" />
            </Array>
          </mxGeometry>
        </mxCell>
        <mxCell id="YTH77d81D2Q7eeMjvWzj-9" value="" style="endArrow=classic;html=1;" edge="1" parent="1">
          <mxGeometry width="50" height="50" relative="1" as="geometry">
            <mxPoint x="300" y="770" as="sourcePoint" />
            <mxPoint x="320" y="779.5" as="targetPoint" />
            <Array as="points">
              <mxPoint x="311" y="770" />
            </Array>
          </mxGeometry>
        </mxCell>
        <mxCell id="YTH77d81D2Q7eeMjvWzj-10" value="" style="endArrow=classic;html=1;" edge="1" parent="1">
          <mxGeometry width="50" height="50" relative="1" as="geometry">
            <mxPoint x="580" y="210" as="sourcePoint" />
            <mxPoint x="605" y="205" as="targetPoint" />
            <Array as="points">
              <mxPoint x="580" y="210" />
            </Array>
          </mxGeometry>
        </mxCell>
        <mxCell id="YTH77d81D2Q7eeMjvWzj-11" value="" style="endArrow=classic;html=1;" edge="1" parent="1">
          <mxGeometry width="50" height="50" relative="1" as="geometry">
            <mxPoint x="720" y="280" as="sourcePoint" />
            <mxPoint x="735" y="290" as="targetPoint" />
            <Array as="points">
              <mxPoint x="720" y="280" />
            </Array>
          </mxGeometry>
        </mxCell>
        <mxCell id="YTH77d81D2Q7eeMjvWzj-20" value="" style="endArrow=none;dashed=1;html=1;dashPattern=1 3;strokeWidth=2;" edge="1" parent="1" source="YTH77d81D2Q7eeMjvWzj-14">
          <mxGeometry width="50" height="50" relative="1" as="geometry">
            <mxPoint x="380" y="465" as="sourcePoint" />
            <mxPoint x="680" y="530" as="targetPoint" />
            <Array as="points">
              <mxPoint x="680" y="530" />
            </Array>
          </mxGeometry>
        </mxCell>
        <mxCell id="YTH77d81D2Q7eeMjvWzj-22" value="include" style="text;html=1;strokeColor=none;fillColor=none;align=center;verticalAlign=middle;whiteSpace=wrap;rounded=0;rotation=0;" vertex="1" parent="1">
          <mxGeometry x="605" y="470" width="40" height="20" as="geometry" />
        </mxCell>
        <mxCell id="YTH77d81D2Q7eeMjvWzj-24" value="extend" style="text;html=1;strokeColor=none;fillColor=none;align=center;verticalAlign=middle;whiteSpace=wrap;rounded=0;rotation=0;" vertex="1" parent="1">
          <mxGeometry x="270" y="650" width="40" height="20" as="geometry" />
        </mxCell>
        <mxCell id="YTH77d81D2Q7eeMjvWzj-25" value="extend" style="text;html=1;strokeColor=none;fillColor=none;align=center;verticalAlign=middle;whiteSpace=wrap;rounded=0;rotation=0;" vertex="1" parent="1">
          <mxGeometry x="270" y="740" width="40" height="20" as="geometry" />
        </mxCell>
        <mxCell id="YTH77d81D2Q7eeMjvWzj-35" value="extend" style="text;html=1;strokeColor=none;fillColor=none;align=center;verticalAlign=middle;whiteSpace=wrap;rounded=0;rotation=0;" vertex="1" parent="1">
          <mxGeometry x="550" y="180" width="40" height="20" as="geometry" />
        </mxCell>
        <mxCell id="YTH77d81D2Q7eeMjvWzj-38" value="include" style="text;html=1;strokeColor=none;fillColor=none;align=center;verticalAlign=middle;whiteSpace=wrap;rounded=0;rotation=0;" vertex="1" parent="1">
          <mxGeometry x="705" y="250" width="40" height="10" as="geometry" />
        </mxCell>
        <mxCell id="YTH77d81D2Q7eeMjvWzj-14" value="" style="ellipse;whiteSpace=wrap;html=1;aspect=fixed;" vertex="1" parent="1">
          <mxGeometry x="590" y="470" width="90" height="90" as="geometry" />
        </mxCell>
        <mxCell id="YTH77d81D2Q7eeMjvWzj-39" value="" style="endArrow=none;dashed=1;html=1;dashPattern=1 3;strokeWidth=2;" edge="1" parent="1" source="YTH77d81D2Q7eeMjvWzj-44" target="YTH77d81D2Q7eeMjvWzj-14">
          <mxGeometry width="50" height="50" relative="1" as="geometry">
            <mxPoint x="380" y="465" as="sourcePoint" />
            <mxPoint x="680" y="530" as="targetPoint" />
            <Array as="points">
              <mxPoint x="520" y="506" />
            </Array>
          </mxGeometry>
        </mxCell>
        <mxCell id="YTH77d81D2Q7eeMjvWzj-40" value="U8:retrieve data" style="text;html=1;strokeColor=none;fillColor=none;align=center;verticalAlign=middle;whiteSpace=wrap;rounded=0;" vertex="1" parent="1">
          <mxGeometry x="585" y="500" width="100" height="20" as="geometry" />
        </mxCell>
        <mxCell id="YTH77d81D2Q7eeMjvWzj-41" value="" style="endArrow=none;dashed=1;html=1;dashPattern=1 3;strokeWidth=2;" edge="1" parent="1" source="YTH77d81D2Q7eeMjvWzj-31">
          <mxGeometry width="50" height="50" relative="1" as="geometry">
            <mxPoint x="730" y="380" as="sourcePoint" />
            <mxPoint x="670" y="460" as="targetPoint" />
            <Array as="points" />
          </mxGeometry>
        </mxCell>
        <mxCell id="YTH77d81D2Q7eeMjvWzj-31" value="include" style="text;html=1;strokeColor=none;fillColor=none;align=center;verticalAlign=middle;whiteSpace=wrap;rounded=0;rotation=0;" vertex="1" parent="1">
          <mxGeometry x="660" y="440" width="40" height="10" as="geometry" />
        </mxCell>
        <mxCell id="YTH77d81D2Q7eeMjvWzj-42" value="" style="endArrow=none;dashed=1;html=1;dashPattern=1 3;strokeWidth=2;" edge="1" parent="1" target="YTH77d81D2Q7eeMjvWzj-14">
          <mxGeometry width="50" height="50" relative="1" as="geometry">
            <mxPoint x="730" y="380" as="sourcePoint" />
            <mxPoint x="600.137177369774" y="521.4889964898084" as="targetPoint" />
            <Array as="points">
              <mxPoint x="730" y="380" />
            </Array>
          </mxGeometry>
        </mxCell>
        <mxCell id="YTH77d81D2Q7eeMjvWzj-44" value="include" style="text;html=1;strokeColor=none;fillColor=none;align=center;verticalAlign=middle;whiteSpace=wrap;rounded=0;rotation=0;" vertex="1" parent="1">
          <mxGeometry x="527.5" y="500" width="40" height="30" as="geometry" />
        </mxCell>
        <mxCell id="YTH77d81D2Q7eeMjvWzj-45" value="" style="endArrow=none;dashed=1;html=1;dashPattern=1 3;strokeWidth=2;" edge="1" parent="1" target="YTH77d81D2Q7eeMjvWzj-44">
          <mxGeometry width="50" height="50" relative="1" as="geometry">
            <mxPoint x="380" y="465" as="sourcePoint" />
            <mxPoint x="590.137177369774" y="511.4889964898084" as="targetPoint" />
            <Array as="points">
              <mxPoint x="450" y="504" />
            </Array>
          </mxGeometry>
        </mxCell>
        <mxCell id="YTH77d81D2Q7eeMjvWzj-46" value="" style="endArrow=classic;html=1;exitX=0;exitY=1;exitDx=0;exitDy=0;" edge="1" parent="1" source="fN4Kaj9CFgbJgUVEXXit-26" target="fN4Kaj9CFgbJgUVEXXit-12">
          <mxGeometry width="50" height="50" relative="1" as="geometry">
            <mxPoint x="457.5" y="460" as="sourcePoint" />
            <mxPoint x="390" y="455" as="targetPoint" />
            <Array as="points">
              <mxPoint x="420" y="400" />
            </Array>
          </mxGeometry>
        </mxCell>
      </root>
    </mxGraphModel>
  </diagram>
</mxfile>
